name Run_300 02_newCOP3_v24.mot
datacolumns 19
datarows 105
range 4.3875 4.4395
DataType=double
version=3
OpenSimVersion=4.3-2021-08-27-4bc7ad9
endheader
time	R_ground_force_vx	R_ground_force_vy	R_ground_force_vz	R_ground_force_px	R_ground_force_py	R_ground_force_pz	L_ground_force_vx	L_ground_force_vy	L_ground_force_vz	L_ground_force_px	L_ground_force_py	L_ground_force_pz	R_ground_torque_x	R_ground_torque_y	R_ground_torque_z	L_ground_torque_x	L_ground_torque_y	L_ground_torque_z
4.3875	-6.919622	35.424271	-6.668577	1.335881	0	-0.344467	0	0	0	0	0	0	-0	0.19747	-0	0	0	0
4.388	-7.274338	37.918869	-6.87587	1.338204	0	-0.344877	0	0	0	0	0	0	-0	0.20677	-0	0	0	0
4.3885	-7.639936	40.570713	-7.081391	1.340315	0	-0.345212	0	0	0	0	0	0	-0	0.216542	-0	0	0	0
4.389	-8.01581	43.386532	-7.284803	1.342237	0	-0.345479	0	0	0	0	0	0	-0	0.226791	-0	0	0	0
4.3895	-8.401261	46.373085	-7.485768	1.343986	0	-0.345688	0	0	0	0	0	0	-0	0.237523	-0	0	0	0
4.39	-8.795508	49.537178	-7.683949	1.34558	0	-0.345847	0	0	0	0	0	0	-0	0.248742	-0	0	0	0
4.3905	-9.197673999999999	52.88562	-7.879009	1.347034	0	-0.345961	0	0	0	0	0	0	-0	0.260453	-0	0	0	0
4.391	-9.606795999999999	56.425205	-8.070613	1.348362	0	-0.346037	0	0	0	0	0	0	-0	0.272661	-0	0	0	0
4.3915	-10.021822	60.162712	-8.258426999999999	1.349576	0	-0.346081	0	0	0	0	0	0	-0	0.28537	-0	0	0	0
4.392	-10.441612	64.10485799999999	-8.442117	1.350688	0	-0.346096	0	0	0	0	0	0	-0	0.298585	-0	0	0	0
4.3925	-10.864944	68.258301	-8.621352	1.351707	0	-0.346088	0	0	0	0	0	0	-0	0.312309	-0	0	0	0
4.393	-11.290515	72.62958500000001	-8.795802999999999	1.352643	0	-0.346059	0	0	0	0	0	0	-0	0.326547	-0	0	0	0
4.3935	-11.716951	77.225143	-8.965142999999999	1.353503	0	-0.346013	0	0	0	0	0	0	-0	0.341302	-0	0	0	0
4.394	-12.142811	82.05127	-9.129046000000001	1.354293	0	-0.345953	0	0	0	0	0	0	-0	0.356579	-0	0	0	0
4.3945	-12.566591	87.114082	-9.287191999999999	1.35502	0	-0.345881	0	0	0	0	0	0	-0	0.37238	-0	0	0	0
4.395	-12.986743	92.41950199999999	-9.439261999999999	1.355689	0	-0.345798	0	0	0	0	0	0	-0	0.388709	-0	0	0	0
4.3955	-13.401676	97.97322800000001	-9.58494	1.356305	0	-0.345708	0	0	0	0	0	0	-0	0.40557	-0	0	0	0
4.396	-13.809773	103.780708	-9.723917	1.356871	0	-0.345611	0	0	0	0	0	0	-0	0.422965	-0	0	0	0
4.3965	-14.209407	109.84713	-9.855886	1.357391	0	-0.345509	0	0	0	0	0	0	-0	0.440897	-0	0	0	0
4.397	-14.598946	116.177353	-9.980549999999999	1.357869	0	-0.345403	0	0	0	0	0	0	-0	0.459369	-0	0	0	0
4.3975	-14.976777	122.775932	-10.097613	1.358306	0	-0.345294	0	0	0	0	0	0	-0	0.478384	-0	0	0	0
4.398	-15.341321	129.647049	-10.206791	1.358706	0	-0.345182	0	0	0	0	0	0	-0	0.497944	-0	0	0	0
4.3985	-15.691049	136.794525	-10.307806	1.359069	0	-0.345068	0	0	0	0	0	0	-0	0.518051	-0	0	0	0
4.399	-16.0245	144.221725	-10.400392	1.359397	0	-0.344952	0	0	0	0	0	0	-0	0.538708	-0	0	0	0
4.3995	-16.340298	151.931656	-10.484289	1.359693	0	-0.344836	0	0	0	0	0	0	-0	0.559916	-0	0	0	0
4.4	-16.63718	159.926804	-10.559255	1.359957	0	-0.34472	0	0	0	0	0	0	-0	0.581678	-0	0	0	0
4.4005	-16.914005	168.209198	-10.625056	1.360191	0	-0.344603	0	0	0	0	0	0	-0	0.603994	-0	0	0	0
4.401	-17.169777	176.78038	-10.681479	1.360396	0	-0.344486	0	0	0	0	0	0	-0	0.626866	-0	0	0	0
4.4015	-17.403666	185.641327	-10.72832	1.360571	0	-0.344369	0	0	0	0	0	0	-0	0.650296	-0	0	0	0
4.402	-17.615025	194.792496	-10.7654	1.360719	0	-0.344252	0	0	0	0	0	0	-0	0.674284	-0	0	0	0
4.4025	-17.803406	204.233795	-10.792557	1.360841	0	-0.344136	0	0	0	0	0	0	-0	0.698831	-0	0	0	0
4.403	-17.968582	213.964523	-10.809649	1.360936	0	-0.34402	0	0	0	0	0	0	-0	0.7239370000000001	-0	0	0	0
4.4035	-18.110556	223.983383	-10.816562	1.361005	0	-0.343905	0	0	0	0	0	0	-0	0.749602	-0	0	0	0
4.404	-18.22958	234.288513	-10.813204	1.36105	0	-0.34379	0	0	0	0	0	0	-0	0.775827	-0	0	0	0
4.4045	-18.326166	244.877396	-10.79951	1.361071	0	-0.343676	0	0	0	0	0	0	-0	0.802611	-0	0	0	0
4.405	-18.401096	255.746857	-10.775447	1.361069	0	-0.343563	0	0	0	0	0	0	-0	0.8299530000000001	-0	0	0	0
4.4055	-18.455431	266.893158	-10.741013	1.361044	0	-0.34345	0	0	0	0	0	0	-0	0.8578519999999999	-0	0	0	0
4.406	-18.490519	278.311859	-10.696237	1.360997	0	-0.343337	0	0	0	0	0	0	-0	0.886307	-0	0	0	0
4.4065	-18.507996	289.997894	-10.641185	1.360929	0	-0.343225	0	0	0	0	0	0	-0	0.915316	-0	0	0	0
4.407	-18.509785	301.945557	-10.57596	1.360841	0	-0.343114	0	0	0	0	0	0	-0	0.944876	-0	0	0	0
4.4075	-18.498106	314.148529	-10.500705	1.360733	0	-0.343003	0	0	0	0	0	0	-0	0.974985	-0	0	0	0
4.408	-18.47546	326.599823	-10.4156	1.360606	0	-0.342893	0	0	0	0	0	0	-0	1.00564	-0	0	0	0
4.4085	-18.444628	339.291809	-10.320869	1.360462	0	-0.342783	0	0	0	0	0	0	-0	1.036837	-0	0	0	0
4.409	-18.408663	352.216309	-10.216784	1.360301	0	-0.342674	0	0	0	0	0	0	-0	1.068573	-0	0	0	0
4.4095	-18.370876	365.364502	-10.103653	1.360123	0	-0.342565	0	0	0	0	0	0	-0	1.100842	-0	0	0	0
4.41	-18.334822	378.726929	-9.981838	1.35993	0	-0.342457	0	0	0	0	0	0	-0	1.13364	-0	0	0	0
4.4105	-18.304287	392.293671	-9.851746	1.359723	0	-0.34235	0	0	0	0	0	0	-0	1.16696	-0	0	0	0
4.411	-18.28326	406.054199	-9.713827999999999	1.359502	0	-0.342243	0	0	0	0	0	0	-0	1.200796	-0	0	0	0
4.4115	-18.275923	419.997467	-9.568588999999999	1.359269	0	-0.342137	0	0	0	0	0	0	-0	1.235142	-0	0	0	0
4.412	-18.286621	434.111908	-9.41658	1.359024	0	-0.342031	0	0	0	0	0	0	-0	1.269989	-0	0	0	0
4.4125	-18.319836	448.385498	-9.258400999999999	1.358769	0	-0.341926	0	0	0	0	0	0	-0	1.305329	-0	0	0	0
4.413	-18.380163	462.805817	-9.0947	1.358503	0	-0.341822	0	0	0	0	0	0	-0	1.341154	-0	0	0	0
4.4135	-18.472282	477.359955	-8.926175000000001	1.35823	0	-0.341719	0	0	0	0	0	0	-0	1.377452	-0	0	0	0
4.414	-18.600927	492.034668	-8.753569000000001	1.357948	0	-0.341617	0	0	0	0	0	0	-0	1.414213	-0	0	0	0
4.4145	-18.770855	506.816345	-8.577673000000001	1.357659	0	-0.341515	0	0	0	0	0	0	-0	1.451427	-0	0	0	0
4.415	-18.986816	521.69104	-8.399323000000001	1.357365	0	-0.341414	0	0	0	0	0	0	-0	1.489079	-0	0	0	0
4.4155	-19.253521	536.6446529999999	-8.219396	1.357065	0	-0.341315	0	0	0	0	0	0	-0	1.527158	-0	0	0	0
4.416	-19.575611	551.662659	-8.038812	1.356761	0	-0.341216	0	0	0	0	0	0	-0	1.565648	-0	0	0	0
4.4165	-19.957623	566.730469	-7.858531	1.356454	0	-0.341119	0	0	0	0	0	0	-0	1.604534	-0	0	0	0
4.417	-20.403963	581.833252	-7.679546	1.356145	0	-0.341023	0	0	0	0	0	0	-0	1.643801	-0	0	0	0
4.4175	-20.918869	596.956177	-7.502887	1.355834	0	-0.340928	0	0	0	0	0	0	-0	1.683431	-0	0	0	0
4.418	-21.506388	612.084167	-7.32961	1.355523	0	-0.340834	0	0	0	0	0	0	-0	1.723406	-0	0	0	0
4.4185	-22.170345	627.202271	-7.1608	1.355211	0	-0.340742	0	0	0	0	0	0	-0	1.763706	-0	0	0	0
4.419	-22.914312	642.295471	-6.997565	1.354901	0	-0.340652	0	0	0	0	0	0	-0	1.804311	-0	0	0	0
4.4195	-23.741589	657.348755	-6.841029	1.354592	0	-0.340564	0	0	0	0	0	0	-0	1.845199	-0	0	0	0
4.42	-24.655178	672.347229	-6.692333	1.354285	0	-0.340477	0	0	0	0	0	0	-0	1.886348	-0	0	0	0
4.4205	-25.657761	687.2761839999999	-6.552626	1.353981	0	-0.340392	0	0	0	0	0	0	-0	1.927734	-0	0	0	0
4.421	-26.751677	702.1209720000001	-6.423061	1.353681	0	-0.34031	0	0	0	0	0	0	-0	1.969331	-0	0	0	0
4.4215	-27.938917	716.867371	-6.304792	1.353385	0	-0.340229	0	0	0	0	0	0	-0	2.011114	-0	0	0	0
4.422	-29.2211	731.50116	-6.198967	1.353094	0	-0.340152	0	0	0	0	0	0	-0	2.053054	-0	0	0	0
4.4225	-30.599463	746.0086669999999	-6.106724	1.352808	0	-0.340076	0	0	0	0	0	0	-0	2.095124	-0	0	0	0
4.423	-32.07486	760.376343	-6.029184	1.352527	0	-0.340004	0	0	0	0	0	0	-0	2.137293	-0	0	0	0
4.4235	-33.647747	774.591125	-5.967446	1.352252	0	-0.339934	0	0	0	0	0	0	-0	2.179529	-0	0	0	0
4.424	-35.318192	788.640503	-5.922582	1.351984	0	-0.339868	0	0	0	0	0	0	-0	2.221801	-0	0	0	0
4.4245	-37.085861	802.5122679999999	-5.895631	1.351723	0	-0.339804	0	0	0	0	0	0	-0	2.264075	-0	0	0	0
4.425	-38.950047	816.194763	-5.887595	1.351468	0	-0.339745	0	0	0	0	0	0	-0	2.306315	-0	0	0	0
4.4255	-40.909649	829.67688	-5.89943	1.351221	0	-0.339688	0	0	0	0	0	0	-0	2.348485	-0	0	0	0
4.426	-42.9632	842.948181	-5.932044	1.350981	0	-0.339636	0	0	0	0	0	0	-0	2.390548	-0	0	0	0
4.4265	-45.108883	855.998779	-5.986289	1.350748	0	-0.339587	0	0	0	0	0	0	-0	2.432464	-0	0	0	0
4.427	-47.344536	868.819397	-6.062958	1.350523	0	-0.339542	0	0	0	0	0	0	-0	2.474195	-0	0	0	0
4.4275	-49.667686	881.401611	-6.162779	1.350305	0	-0.339502	0	0	0	0	0	0	-0	2.515698	-0	0	0	0
4.428	-52.075565	893.7375489999999	-6.286412	1.350094	0	-0.339466	0	0	0	0	0	0	-0	2.556931	-0	0	0	0
4.4285	-54.565125	905.82019	-6.434441	1.349891	0	-0.339435	0	0	0	0	0	0	-0	2.59785	-0	0	0	0
4.429	-57.13308	917.643372	-6.60737	1.349695	0	-0.339408	0	0	0	0	0	0	-0	2.63841	-0	0	0	0
4.4295	-59.775936	929.2016599999999	-6.805625	1.349506	0	-0.339386	0	0	0	0	0	0	-0	2.678567	-0	0	0	0
4.43	-62.490005	940.490356	-7.029544	1.349323	0	-0.33937	0	0	0	0	0	0	-0	2.718271	-0	0	0	0
4.4305	-65.271446	951.505859	-7.279376	1.349147	0	-0.339358	0	0	0	0	0	0	-0	2.757477	-0	0	0	0
4.431	-68.11631800000001	962.245239	-7.555278	1.348976	0	-0.339352	0	0	0	0	0	0	-0	2.796133	-0	0	0	0
4.4315	-71.020561	972.706604	-7.857315	1.348812	0	-0.33935	0	0	0	0	0	0	-0	2.834191	-0	0	0	0
4.432	-73.980087	982.888916	-8.185453000000001	1.348652	0	-0.339355	0	0	0	0	0	0	-0	2.871599	-0	0	0	0
4.4325	-76.990776	992.791931	-8.539564	1.348498	0	-0.339365	0	0	0	0	0	0	-0	2.908306	-0	0	0	0
4.433	-80.048531	1002.416504	-8.919420000000001	1.348348	0	-0.33938	0	0	0	0	0	0	-0	2.944258	-0	0	0	0
4.4335	-83.14928399999999	1011.764282	-9.324693999999999	1.348201	0	-0.339401	0	0	0	0	0	0	-0	2.979403	-0	0	0	0
4.434	-86.28903200000001	1020.837891	-9.754961	1.348058	0	-0.339428	0	0	0	0	0	0	-0	3.013686	-0	0	0	0
4.4345	-89.463905	1029.640869	-10.209697	1.347917	0	-0.339461	0	0	0	0	0	0	-0	3.047053	-0	0	0	0
4.435	-92.67012	1038.17749	-10.688281	1.347778	0	-0.339499	0	0	0	0	0	0	-0	3.079447	-0	0	0	0
4.4355	-95.90406	1046.453247	-11.189999	1.347641	0	-0.339543	0	0	0	0	0	0	-0	3.110814	-0	0	0	0
4.436	-99.162277	1054.473999	-11.714041	1.347505	0	-0.339592	0	0	0	0	0	0	-0	3.141097	-0	0	0	0
4.4365	-102.44149	1062.246704	-12.259505	1.347369	0	-0.339647	0	0	0	0	0	0	-0	3.17024	-0	0	0	0
4.437	-105.73864	1069.779297	-12.825407	1.347232	0	-0.339707	0	0	0	0	0	0	-0	3.198185	-0	0	0	0
4.4375	-109.050858	1077.080078	-13.410673	1.347095	0	-0.339772	0	0	0	0	0	0	-0	3.224876	-0	0	0	0
4.438	-112.375481	1084.158203	-14.014153	1.346955	0	-0.339843	0	0	0	0	0	0	-0	3.250256	-0	0	0	0
4.4385	-115.710075	1091.023682	-14.634618	1.346813	0	-0.339918	0	0	0	0	0	0	-0	3.274267	-0	0	0	0
4.439	-119.052406	1097.687012	-15.270773	1.346668	0	-0.339999	0	0	0	0	0	0	-0	3.296852	-0	0	0	0
4.4395	-122.400459	1104.159058	-15.921253	1.34652	0	-0.340084	0	0	0	0	0	0	-0	3.317955	-0	0	0	0
